<svg version="1.1" id="Layer_1" xmlns="http://www.w3.org/2000/svg" xmlns:xlink="http://www.w3.org/1999/xlink" x="0px" y="0px" width="100%" viewBox="0 0 500 147" enable-background="new 0 0 500 147" xml:space="preserve">

<path fill="#000000" opacity="1.000000" stroke="none" d="
M1.000001,142.000000 
	C1.000000,95.084068 1.000000,48.168129 1.000000,1.000000 
	C35.353817,1.000000 69.708252,1.000000 104.817734,1.282491 
	C89.894226,19.296646 74.215668,37.028313 58.410843,54.902771 
	C53.523968,42.073704 48.600216,29.147823 43.676464,16.221945 
	C43.310650,16.262226 42.944839,16.302505 42.579025,16.342785 
	C42.260582,18.091684 41.942142,19.840586 41.581497,21.821260 
	C39.999535,17.003477 38.521202,12.501287 36.675270,6.879599 
	C33.112000,13.781508 39.558849,18.873545 37.127922,25.896284 
	C36.930820,21.285133 35.544296,19.503952 32.343102,18.030678 
	C31.126289,17.470667 29.490765,15.262351 28.307817,16.503180 
	C27.083483,17.787426 26.888849,20.371252 26.865784,22.393719 
	C26.842556,24.430431 28.419754,26.768497 27.827265,28.460241 
	C26.312065,32.786617 27.971960,36.310810 29.506788,39.988628 
	C33.816875,50.316631 38.058582,60.675110 42.540989,70.928131 
	C43.961594,74.177620 43.826092,76.791962 41.771420,79.724739 
	C33.539684,91.474480 25.390547,103.284210 17.371265,115.179886 
	C12.285585,122.723930 6.099538,129.679230 4.297767,139.092453 
	C4.079962,140.230362 2.141166,141.038849 1.000001,142.000000 
z" data-index="1" style="opacity: 1; visibility: hidden;"></path>
<path fill="#FEFEFE" opacity="1.000000" stroke="none" d="
M1.000001,142.399994 
	C2.141166,141.038849 4.079962,140.230362 4.297767,139.092453 
	C6.099538,129.679230 12.285585,122.723930 17.371265,115.179886 
	C25.390547,103.284210 33.539684,91.474480 41.771420,79.724739 
	C43.826092,76.791962 43.961594,74.177620 42.540989,70.928131 
	C38.058582,60.675110 33.816875,50.316631 29.506788,39.988628 
	C27.971960,36.310810 26.312065,32.786617 27.827265,28.460241 
	C28.419754,26.768497 26.842556,24.430431 26.865784,22.393719 
	C26.888849,20.371252 27.083483,17.787426 28.307817,16.503180 
	C29.490765,15.262351 31.126289,17.470667 32.343102,18.030678 
	C35.544296,19.503952 36.930820,21.285133 37.127922,25.896284 
	C39.558849,18.873545 33.112000,13.781508 36.675270,6.879599 
	C38.521202,12.501287 39.999535,17.003477 41.581497,21.821260 
	C41.942142,19.840586 42.260582,18.091684 42.579025,16.342785 
	C42.944839,16.302505 43.310650,16.262226 43.676464,16.221945 
	C48.600216,29.147823 53.523968,42.073704 58.410843,54.902771 
	C74.215668,37.028313 89.894226,19.296646 105.286392,1.282491 
	C106.388893,1.000000 107.777779,1.000000 109.583336,1.000000 
	C108.494965,3.613761 106.989929,6.227520 105.122406,9.470811 
	C107.319717,9.998147 109.579918,10.540574 112.405075,11.218588 
	C108.857788,15.268462 105.220993,19.420527 101.584198,23.572590 
	C101.903923,23.878214 102.223648,24.183836 102.543381,24.489460 
	C106.932861,20.548685 111.322350,16.607910 115.703957,12.674208 
	C119.421036,15.904869 115.892670,17.128672 114.214539,19.347889 
	C113.642990,20.135168 113.512077,20.471416 113.381172,20.807667 
	C113.945648,20.565020 114.510132,20.322372 115.074608,20.079723 
	C116.028458,20.123199 116.982307,20.166677 118.614960,20.241095 
	C114.564392,24.881042 110.834419,28.963192 107.316681,33.220707 
	C98.396469,44.016804 89.579437,54.898094 80.704170,65.731415 
	C77.394592,69.771141 73.881081,73.657471 70.801750,77.863533 
	C69.916550,79.072632 69.483376,81.514450 70.100105,82.776939 
	C74.546333,91.878632 79.624207,100.679398 83.882576,109.862717 
	C87.130157,116.866241 89.468742,124.291275 92.211708,131.528793 
	C91.812592,131.832108 91.413475,132.135406 91.014359,132.438705 
	C89.262154,131.197876 87.509956,129.957047 85.519974,128.547836 
	C84.858673,129.160461 83.947098,130.004959 83.312859,130.592529 
	C84.025787,133.349747 84.692627,135.928741 85.359474,138.507721 
	C85.015511,138.746048 84.671539,138.984360 84.327576,139.222687 
	C83.009827,138.219086 81.692070,137.215485 79.983955,135.914597 
	C80.206482,137.420944 80.378937,138.588379 80.551392,139.755814 
	C80.227562,140.019379 79.903732,140.282959 79.579903,140.546524 
	C78.392349,139.017853 76.896095,137.639618 76.066193,135.936661 
	C69.550903,122.567169 63.163200,109.135498 56.531822,95.296532 
	C43.631786,112.237747 31.503038,128.152359 19.402847,144.088654 
	C18.623602,145.114944 18.064762,146.308578 17.701694,147.712189 
	C14.969407,148.000000 11.938813,148.000000 8.464051,147.600281 
	C8.327304,145.912796 8.634726,144.625061 9.207744,142.224777 
	C5.899609,143.746384 3.449805,144.873199 1.000001,146.000000 
	C1.000000,144.933334 1.000000,143.866653 1.000001,142.399994 
M97.167030,31.201681 
	C98.904083,29.269844 100.641136,27.338007 102.378181,25.406172 
	C101.774803,24.976088 101.171425,24.546003 100.568047,24.115921 
	C99.169884,26.544430 97.771729,28.972940 97.167030,31.201681 
M91.498421,34.988125 
	C91.358551,35.718262 91.218689,36.448399 91.078819,37.178535 
	C91.427734,37.314831 91.776657,37.451130 92.125572,37.587425 
	C92.659218,36.342651 93.192871,35.097881 93.726517,33.853107 
	C93.178177,34.017681 92.629845,34.182255 91.498421,34.988125 
M87.696861,39.965450 
	C87.644394,40.535999 87.591934,41.106552 87.539467,41.677101 
	C87.827362,41.244164 88.115257,40.811222 87.696861,39.965450 
z" data-index="2" style="opacity: 1; visibility: visible;"></path>

<path fill="#FEFEFE" opacity="1.000000" stroke="none" d="
M314.993591,56.802628 
	C314.988159,59.270512 314.988159,61.268074 314.988159,63.893253 
	C317.299744,61.818195 319.195679,59.934715 321.273895,58.280205 
	C334.646271,47.634159 358.400696,51.274639 363.790527,72.725182 
	C366.576904,83.814407 366.719971,94.963760 362.112793,105.976006 
	C356.276093,119.927094 343.807404,124.053566 331.161316,121.382675 
	C325.493774,120.185677 320.403351,116.256386 315.251160,113.667549 
	C315.251160,115.023048 315.251160,117.721703 315.251160,120.710114 
	C311.457123,120.710114 308.037018,120.710114 304.304871,120.710114 
	C304.304871,89.784790 304.304871,58.730408 304.304871,27.337191 
	C307.514343,27.337191 310.920135,27.337191 314.999054,27.337191 
	C314.999054,36.838177 314.999054,46.585239 314.993591,56.802628 
M339.394104,111.999115 
	C346.785645,111.062965 351.596436,106.131737 352.675507,99.651657 
	C353.988556,91.766457 353.887756,83.366737 352.739136,75.429718 
	C351.605286,67.594810 345.530182,62.998455 337.679199,62.130577 
	C330.694550,61.358467 324.245575,63.332218 319.958405,69.466728 
	C313.464844,78.758362 313.979309,88.868477 316.995941,99.148315 
	C320.071930,109.630409 328.792694,113.714828 339.394104,111.999115 
z" data-index="4" style="opacity: 1;"></path>
<path fill="#FEFEFE" opacity="1.000000" stroke="none" d="
M159.474564,89.761765 
	C144.415558,89.988518 129.770752,90.010071 115.125969,90.037483 
	C114.971977,90.037766 114.818130,90.114944 114.664215,90.156227 
	C111.822334,97.020020 117.198685,108.307198 126.166611,111.645363 
	C136.184631,115.374413 146.497787,111.400047 151.968674,101.513145 
	C154.567169,102.994682 157.159851,104.472908 159.719757,105.932449 
	C154.415634,121.725685 138.722855,123.375404 125.923622,121.450050 
	C111.993484,119.354568 104.044701,107.043640 102.708992,93.762329 
	C101.724899,83.977371 102.866264,75.024483 107.242294,66.630325 
	C111.649643,58.176109 119.144226,53.404491 128.835922,53.086239 
	C133.707687,52.926262 138.820786,52.896973 143.453033,54.165710 
	C153.090866,56.805431 158.435287,64.000404 159.849991,73.625229 
	C160.614319,78.825363 159.923248,84.239403 159.474564,89.761765 
M148.172836,80.998466 
	C148.779190,79.797081 150.082153,78.463158 149.882721,77.415108 
	C148.144623,68.280708 143.322632,61.518719 131.791473,61.794064 
	C121.569748,62.038139 113.706612,70.811630 114.393600,80.717369 
	C114.706635,80.804672 115.019524,80.967712 115.332726,80.968315 
	C125.965935,80.988724 136.599182,80.993706 148.172836,80.998466 
z" data-index="5" style="opacity: 1;"></path>
<path fill="#FEFEFE" opacity="1.000000" stroke="none" d="
M429.585632,58.203533 
	C444.191315,68.968643 444.866821,97.611679 435.058746,110.897430 
	C430.421906,117.178391 424.013977,120.840866 416.845154,121.753036 
	C405.968719,123.136971 394.882355,122.292152 387.399994,112.644585 
	C384.148712,108.452499 381.516357,103.278214 380.261505,98.144600 
	C377.656342,87.487030 378.503723,76.832130 384.014984,66.984711 
	C388.902618,58.251587 396.306549,53.453804 406.422729,52.990334 
	C414.499603,52.620293 422.383270,53.005650 429.585632,58.203533 
M390.036194,90.199341 
	C390.347015,90.780067 390.850983,91.332596 390.940491,91.945641 
	C393.382721,108.676483 398.080322,112.671257 414.595703,111.998177 
	C420.211853,111.769295 426.037445,107.094658 428.023315,101.542923 
	C431.104553,92.928787 430.895721,84.110428 428.851685,75.502899 
	C426.941833,67.460526 420.744904,63.451778 412.811340,62.016640 
	C406.837616,60.936028 398.272064,64.608788 394.911316,69.379173 
	C390.653137,75.423340 390.715271,82.434097 390.036194,90.199341 
z" data-index="6" style="opacity: 1;"></path>
<path fill="#FEFEFE" opacity="1.000000" stroke="none" d="
M274.588440,58.205711 
	C282.926178,65.585503 286.440887,74.590981 286.036438,85.314751 
	C285.785645,91.965279 285.945129,98.415329 283.224487,104.942284 
	C278.935364,115.232033 271.081116,120.264763 260.937347,121.781975 
	C255.579330,122.583374 249.675049,121.965881 244.392227,120.570175 
	C233.503067,117.693298 227.591568,109.355637 225.162491,98.941879 
	C222.922531,89.338875 223.154984,79.472374 227.076248,70.197998 
	C230.924850,61.095531 239.671219,53.403095 250.958420,52.977505 
	C259.182281,52.667419 267.238556,52.902950 274.588440,58.205711 
M267.352386,109.099075 
	C268.565735,107.756401 270.045319,106.571396 270.949097,105.045372 
	C276.645691,95.426895 275.915649,85.192810 273.401978,74.907074 
	C271.388977,66.670166 264.993958,63.118607 257.463531,62.168072 
	C250.276627,61.260906 243.846573,63.380657 239.375015,70.005722 
	C233.432541,78.810127 233.925812,95.855247 239.295700,104.735580 
	C240.072128,106.019608 241.285751,107.099976 242.465652,108.069412 
	C250.188675,114.414810 258.458344,113.059601 267.352386,109.099075 
z" data-index="7" style="opacity: 1;"></path>
<path fill="#FEFEFE" opacity="1.000000" stroke="none" d="
M496.953156,116.992615 
	C489.916687,122.758629 482.034058,123.150887 473.890778,120.973816 
	C467.380280,119.233246 463.920349,114.356346 463.107941,108.007408 
	C462.296844,101.668404 462.167328,95.224167 462.040375,88.820084 
	C461.872864,80.372070 461.999176,71.918228 461.999176,63.079559 
	C458.288422,63.079559 454.873993,63.079559 451.237854,63.079559 
	C451.237854,59.960629 451.237854,57.224880 451.237854,54.096260 
	C454.686951,54.096260 458.106262,54.096260 461.881653,54.096260 
	C461.881653,49.303936 461.881653,44.876221 461.881653,40.298378 
	C465.615295,39.453987 469.027985,38.682182 472.822815,37.823956 
	C472.822815,43.195633 472.822815,48.285175 472.822815,53.766212 
	C479.874786,53.766212 486.614044,53.766212 493.673645,53.766212 
	C493.673645,56.877621 493.673645,59.615303 493.673645,62.739082 
	C487.155487,62.739082 480.409668,62.739082 472.982025,62.739082 
	C472.982025,69.673088 472.982178,76.250099 472.981964,82.827110 
	C472.981781,88.983406 472.793030,95.146812 473.025238,101.294319 
	C473.364838,110.284554 477.863434,114.982399 486.582062,111.586624 
	C493.571289,108.864441 494.917084,112.038406 496.953156,116.992615 
z" data-index="8"></path>
<path fill="#FEFEFE" opacity="1.000000" stroke="none" d="
M205.126678,53.001591 
	C215.882095,53.211178 216.668777,54.361149 213.630417,64.558777 
	C209.490875,64.130035 205.141388,62.625183 201.327606,63.488083 
	C191.097305,65.802765 188.765503,71.491623 188.148270,83.152473 
	C187.490509,95.578735 188.000214,108.066795 188.000214,120.763229 
	C184.286667,120.763229 180.884109,120.763229 177.237976,120.763229 
	C177.237976,98.607208 177.237976,76.538559 177.237976,54.233780 
	C180.385971,54.233780 183.459579,54.233780 186.890594,54.233780 
	C186.890594,57.363651 186.890594,60.432526 186.890594,65.056664 
	C191.517487,57.433331 197.105530,53.561153 205.126678,53.001591 
z" data-index="9" style="opacity: 1;"></path>

<path fill="#000000" opacity="1.000000" stroke="none" d="
M91.789963,34.667477 
	C92.629845,34.182255 93.178177,34.017681 93.726517,33.853107 
	C93.192871,35.097881 92.659218,36.342651 92.125572,37.587425 
	C91.776657,37.451130 91.427734,37.314831 91.078819,37.178535 
	C91.218689,36.448399 91.358551,35.718262 91.789963,34.667477 
z" data-index="11" style="opacity: 1; visibility: hidden;"></path>

<path fill="#000000" opacity="1.000000" stroke="none" d="
M114.868759,19.904732 
	C114.510132,20.322372 113.945648,20.565020 113.381172,20.807667 
	C113.512077,20.471416 113.642990,20.135168 113.997681,19.608530 
	C114.368614,19.522007 114.515770,19.625874 114.868759,19.904732 
z" data-index="13" style="opacity: 1; visibility: hidden;"></path>

<path fill="#000000" opacity="1.000000" stroke="none" d="
M147.702637,80.999695 
	C136.599182,80.993706 125.965935,80.988724 115.332726,80.968315 
	C115.019524,80.967712 114.706635,80.804672 114.395027,80.712257 
	C113.706612,70.811630 121.569748,62.038139 131.791473,61.794064 
	C143.322632,61.518719 148.144623,68.280708 149.882721,77.415108 
	C150.082153,78.463158 148.779190,79.797081 147.702637,80.999695 
z" data-index="15" style="opacity: 1; visibility: hidden;"></path>

<path fill="#000000" opacity="1.000000" stroke="none" d="
M267.099304,109.392349 
	C258.458344,113.059601 250.188675,114.414810 242.465652,108.069412 
	C241.285751,107.099976 240.072128,106.019608 239.295700,104.735580 
	C233.925812,95.855247 233.432541,78.810127 239.375015,70.005722 
	C243.846573,63.380657 250.276627,61.260906 257.463531,62.168072 
	C264.993958,63.118607 271.388977,66.670166 273.401978,74.907074 
	C275.915649,85.192810 276.645691,95.426895 270.949097,105.045372 
	C270.045319,106.571396 268.565735,107.756401 267.099304,109.392349 
z" data-index="17" style="opacity: 1; visibility: hidden; fill: rgb(121, 40, 202);"></path>
</svg>