<svg version="1.1" id="Layer_1" xmlns="http://www.w3.org/2000/svg" xmlns:xlink="http://www.w3.org/1999/xlink" x="0px" y="0px" width="100%" viewBox="0 0 117 147" enable-background="new 0 0 117 147" xml:space="preserve">

<path fill="#010101" opacity="1.000000" stroke="none" d="
M118.000000,22.000000 
	C118.000000,63.918900 118.000000,105.837799 118.000000,148.000000 
	C84.646164,148.000000 51.291740,148.000000 17.204721,147.708496 
	C29.502306,130.413055 42.532482,113.409096 56.322102,95.414093 
	C64.101097,110.515205 71.679955,125.227798 79.258812,139.940399 
	C79.431602,139.884521 79.604401,139.828644 79.777191,139.772781 
	C79.625824,138.692627 79.474449,137.612488 79.508347,136.417938 
	C79.693611,136.303528 80.002663,135.996689 80.331947,136.041931 
	C81.697739,137.055542 82.734245,138.023895 83.770752,138.992249 
	C84.087143,138.807877 84.403534,138.623505 84.719925,138.439133 
	C83.929070,135.715088 83.138214,132.991043 82.374352,130.359955 
	C83.523285,129.600082 84.642166,128.860077 86.584702,127.575340 
	C87.494980,129.384308 88.460693,131.303436 89.426407,133.222565 
	C90.154144,132.704483 90.881874,132.186401 91.609612,131.668320 
	C89.190041,125.259682 87.135513,118.682175 84.267036,112.481186 
	C79.738617,102.691765 74.592117,93.189644 69.905502,83.470322 
	C69.275742,82.164307 69.107582,79.734558 69.890221,78.781746 
	C85.502937,59.774342 101.287033,40.907722 117.277451,22.016523 
	C117.518425,22.020407 118.000000,22.000000 118.000000,22.000000 
z" data-index="1" style="opacity: 1; visibility: hidden;"></path>
<path fill="#F7F7F7" opacity="1.000000" stroke="none" d="
M117.036484,22.012642 
	C101.287033,40.907722 85.502937,59.774342 69.890221,78.781746 
	C69.107582,79.734558 69.275742,82.164307 69.905502,83.470322 
	C74.592117,93.189644 79.738617,102.691765 84.267036,112.481186 
	C87.135513,118.682175 89.190041,125.259682 91.609612,131.668320 
	C90.881874,132.186401 90.154144,132.704483 89.426407,133.222565 
	C88.460693,131.303436 87.494980,129.384308 86.584702,127.575340 
	C84.642166,128.860077 83.523285,129.600082 82.374352,130.359955 
	C83.138214,132.991043 83.929070,135.715088 84.719925,138.439133 
	C84.403534,138.623505 84.087143,138.807877 83.770752,138.992249 
	C82.734245,138.023895 81.697739,137.055542 80.262535,135.818939 
	C79.683578,135.877899 79.503326,136.205124 79.323074,136.532349 
	C79.474449,137.612488 79.625824,138.692627 79.777191,139.772781 
	C79.604401,139.828644 79.431602,139.884521 79.258812,139.940399 
	C71.679955,125.227798 64.101097,110.515205 56.322102,95.414093 
	C42.532482,113.409096 29.502306,130.413055 16.736065,147.708496 
	C14.299986,148.000000 11.599973,148.000000 8.454335,147.627060 
	C8.588493,145.951202 9.168275,144.648285 10.324183,142.050674 
	C7.704619,143.068939 6.132961,143.818253 4.479324,144.262253 
	C3.693109,144.473358 2.750663,144.102600 1.878988,143.995422 
	C3.263479,140.916992 4.630054,137.830338 6.038953,134.763107 
	C6.932478,132.817886 7.665967,130.750870 8.852074,128.995850 
	C19.634510,113.041801 30.332287,97.025024 41.463387,81.316086 
	C44.180332,77.481758 44.767708,74.485229 42.371212,70.540688 
	C40.923222,68.157349 40.029259,65.437416 39.028080,62.348270 
	C39.169796,61.827816 39.462997,61.520401 39.462997,61.520401 
	C41.304207,64.995956 43.145420,68.471512 44.986629,71.947067 
	C45.362991,71.794746 45.739357,71.642433 46.115719,71.490112 
	C45.444332,69.882385 44.790371,68.267120 44.098610,66.668198 
	C40.676590,58.758675 36.134239,51.562656 31.428549,44.332489 
	C28.894321,40.438713 25.652639,34.964825 28.544483,28.998394 
	C29.200882,27.644121 27.825018,25.272955 27.310215,23.390186 
	C26.486744,20.378546 26.675949,17.832823 30.273584,16.377844 
	C33.011925,19.614298 35.675793,22.762737 38.585472,26.201698 
	C37.579502,20.758835 36.553356,15.206794 35.527210,9.654754 
	C35.952526,9.587136 36.377846,9.519520 36.803162,9.451902 
	C38.317795,13.902819 39.832428,18.353735 41.699638,23.840736 
	C42.069153,21.207548 42.291622,19.622213 42.704067,16.683107 
	C49.937794,30.067318 51.885769,44.234062 58.396816,57.767788 
	C65.804413,48.436188 71.819267,40.288799 78.435074,32.662746 
	C87.641083,22.050957 97.297188,11.829631 106.380318,1.220587 
	C106.750000,1.000000 107.500000,1.000000 108.445160,1.340557 
	C107.515465,4.299498 106.390617,6.917881 105.076927,9.975851 
	C106.877937,10.715895 108.885735,11.540905 110.808830,12.331114 
	C101.311455,23.594994 91.904778,34.751312 82.498093,45.907627 
	C83.009338,46.372562 83.520584,46.837498 84.031830,47.302433 
	C85.055016,46.162949 86.063309,45.009670 87.103752,43.886169 
	C95.245377,35.094597 103.304436,26.223270 111.615433,17.594664 
	C113.238327,15.909747 115.846352,15.173697 118.000000,13.999998 
	C118.000000,14.750000 118.000000,15.500000 117.733246,16.324814 
	C116.009499,17.752100 114.552505,19.104572 112.886581,20.601152 
	C112.427078,21.141249 112.176498,21.537237 111.687515,22.010155 
	C111.424202,22.283941 111.399300,22.480797 111.374397,22.677654 
	C111.746017,22.660437 112.117638,22.643221 112.747192,22.497208 
	C113.414330,21.991880 113.823540,21.615351 114.583023,21.179859 
	C115.634361,21.418146 116.335426,21.715395 117.036484,22.012642 
z" data-index="2" style="opacity: 1; visibility: visible;"></path>

<path fill="#0A0A0A" opacity="1.000000" stroke="none" d="
M1.659215,143.991547 
	C2.750663,144.102600 3.693109,144.473358 4.479324,144.262253 
	C6.132961,143.818253 7.704619,143.068939 10.324183,142.050674 
	C9.168275,144.648285 8.588493,145.951202 8.004356,147.627060 
	C6.500000,148.000000 4.937915,147.728928 3.512679,148.055359 
	C0.358252,148.777832 1.048076,146.654388 1.000000,144.500000 
	C1.000000,144.000000 1.439442,143.987656 1.659215,143.991547 
z" data-index="4" style="opacity: 1; visibility: hidden;"></path>

<path fill="#F7F7F7" opacity="1.000000" stroke="none" d="
M39.019226,61.977638 
	C38.691849,61.835232 38.515038,61.542995 38.338226,61.250763 
	C38.590263,61.205448 38.842300,61.160130 39.278664,61.317604 
	C39.462997,61.520401 39.169796,61.827816 39.019226,61.977638 
z" data-index="6"></path>

<path fill="#0D0D0D" opacity="1.000000" stroke="none" d="
M112.360184,22.443241 
	C112.117638,22.643221 111.746017,22.660437 111.374397,22.677654 
	C111.399300,22.480797 111.424202,22.283941 111.687515,22.010155 
	C111.925919,21.933226 112.231117,22.260481 112.360184,22.443241 
z" data-index="8" style="opacity: 1; visibility: hidden;"></path>
<path fill="#010101" opacity="1.000000" stroke="none" d="
M79.508347,136.417938 
	C79.503326,136.205124 79.683578,135.877899 79.933250,135.773682 
	C80.002663,135.996689 79.693611,136.303528 79.508347,136.417938 
z" data-index="9"></path>
</svg>